<svg xmlns="http://www.w3.org/2000/svg" width="32" height="32">
    <path style="stroke:none;fill-rule:nonzero;fill:#000;fill-opacity:1" d="M25.332 4A2.669 2.669 0 0 1 28 6.668v18.664A2.669 2.669 0 0 1 25.332 28H6.668A2.669 2.669 0 0 1 4 25.332V6.668A2.669 2.669 0 0 1 6.668 4h5.57c.563-1.547 2.028-2.668 3.762-2.668S19.2 2.453 19.762 4h5.57M16 4c-.738 0-1.332.598-1.332 1.332a1.332 1.332 0 1 0 2.664 0C17.332 4.598 16.738 4 16 4M9.332 9.332V6.668H6.668v18.664h18.664V6.668h-2.664v2.664H9.332M16 12a2.666 2.666 0 1 1 0 5.332A2.666 2.666 0 1 1 16 12m-5.332 10.668v-1.336c0-1.465 2.387-2.664 5.332-2.664s5.332 1.2 5.332 2.664v1.336Zm0 0"/>
</svg>
