<svg xmlns="http://www.w3.org/2000/svg" width="32" height="32">
    <path style="stroke:none;fill-rule:nonzero;fill:#000;fill-opacity:1" d="M4.934 1.707c1.191-.082 2.96.008 3.863.191 1.203.247 1.969.606 2.598 1.223.73.719 1.03 1.504 1.03 2.7 0 1.027-.187 1.804-.69 2.847-.653 1.348-1.715 2.5-2.786 3.023-.195.098-.355.207-.36.246-.007.145.395 1.137.774 1.903.371.754 1.332 2.422 1.485 2.578.058.059.093.016.195-.242.3-.781.73-1.504 1.273-2.14.48-.567 2.63-2.09 3.59-2.548.172-.082.2-.12.23-.336.446-3.187 2.755-5.707 5.907-6.445.535-.125.703-.14 1.664-.144.973 0 1.117.011 1.66.14 2.324.555 4.164 2.012 5.195 4.125a7.575 7.575 0 0 1-.039 6.77 7.462 7.462 0 0 1-3.453 3.414 8.802 8.802 0 0 1-1.043.425c-.433.137-.465.157-.64.418-.36.528-.934 1.297-1.465 1.957-3.367 4.204-7.192 6.899-11.09 7.813-1.332.313-3.129.441-3.863.273-1.809-.41-3.465-2.214-5.047-5.488-1.43-2.96-2.516-6.527-3.027-9.957-.118-.808-.122-.914-.122-5.039 0-3.902.008-4.238.098-4.562.399-1.43 1.64-2.66 3.05-3.012a7.317 7.317 0 0 1 1.013-.133Zm2.562 2.566c-.66-.066-2.453-.07-2.781-.003a2.82 2.82 0 0 0-.414.12c-.246.106-.711.54-.836.786-.203.402-.223.746-.195 4.484.02 2.957.039 3.703.109 4.219.617 4.39 2.433 9.441 4.289 11.934.387.519 1.035 1.187 1.344 1.386.398.254.648.29 1.484.219 2.336-.2 4.488-1.031 6.66-2.574 2.266-1.61 4.461-3.95 6.407-6.828.457-.684.503-.735.69-.762.466-.078 1.263-.305 1.587-.45 1.308-.593 2.39-1.874 2.8-3.316.247-.863.192-2.113-.136-3.054-.559-1.598-2.059-2.922-3.684-3.254-1.773-.364-3.449.129-4.691 1.375-1.04 1.047-1.45 2.015-1.5 3.566l-.031.844-.785.394c-1.477.743-3.09 1.813-3.637 2.418-.52.575-.918 1.54-1.059 2.563-.094.68-.035 2.16.113 2.887.047.218.086.437.122.66.007.082-.168.156-1.137.465-.633.203-1.176.367-1.207.367-.098 0-.445-1.75-.45-2.266 0-.176-.046-.265-.273-.531-1.379-1.629-2.86-4.047-3.719-6.063-.535-1.261-.691-1.957-.734-3.226l-.035-.969.797-.02c.781-.019.8-.023 1.168-.199.992-.492 1.922-1.906 2.113-3.222.055-.387.05-.496-.027-.813-.047-.2-.13-.41-.18-.465-.262-.289-1.184-.574-2.172-.672Zm0 0"/>
</svg>
