<svg xmlns="http://www.w3.org/2000/svg" width="32" height="32">
    <path style="stroke:none;fill-rule:evenodd;fill:#000;fill-opacity:1" d="M15.523 1.422a1.548 1.548 0 0 0-.457.308c-.43.43-.398-.109-.398 7.602s-.031 7.176.398 7.602c.426.43-.109.398 7.602.398 7.71 0 7.172.031 7.602-.398.355-.356.418-.63.378-1.57-.14-3.087-1.191-5.927-3.117-8.43-.52-.672-1.968-2.09-2.683-2.625-2.45-1.84-5.305-2.856-8.262-2.95-.68-.02-.867-.011-1.063.063M9.97 2.629C7.602 3.664 5.3 5.609 3.813 7.844a14.905 14.905 0 0 0-2.329 6.031c-.093.625-.117 1.004-.12 2.07 0 .809.023 1.492.066 1.79.351 2.453 1.117 4.511 2.375 6.398a15.515 15.515 0 0 0 4.46 4.32 14.7 14.7 0 0 0 14.356.621c2.938-1.488 5.383-4.035 6.723-6.996.207-.453.23-.547.23-.91 0-.355-.02-.434-.164-.664-.324-.527-.902-.758-1.48-.59-.489.145-.668.348-1.125 1.281-1.79 3.653-5.067 6.051-9.125 6.68-.73.113-2.45.129-3.172.027-5.926-.82-10.274-5.586-10.492-11.504C3.875 12.54 5.684 8.73 8.75 6.445c.781-.578 1.129-.793 2.063-1.27.816-.41.976-.558 1.132-1.038.137-.414-.02-1.008-.351-1.32-.426-.403-.985-.465-1.625-.188M18.66 4.3c2.574.57 5.016 2.101 6.692 4.195 1.335 1.668 2.265 3.805 2.535 5.836l.043.336H17.332V4.07l.36.047c.199.028.632.11.968.184"/>
</svg>
