<svg xmlns="http://www.w3.org/2000/svg" width="32" height="32">
    <path style="stroke:none;fill-rule:nonzero;fill:#000;fill-opacity:1" d="M16 8c.55 0 1 .45 1 1v3c0 .55-.45 1-1 1s-1-.45-1-1V9c0-.55.45-1 1-1Zm-8.535 3.465a1 1 0 0 1 1.414 0l1.828 1.828a1 1 0 1 1-1.414 1.414l-1.828-1.828a1 1 0 0 1 0-1.414ZM4 20c0-.55.45-1 1-1h3.172c.55 0 1 .45 1 1s-.45 1-1 1H5c-.55 0-1-.45-1-1Zm19 0c0-.55.45-1 1-1h3c.55 0 1 .45 1 1s-.45 1-1 1h-3c-.55 0-1-.45-1-1Zm1.508-8.492a.777.777 0 0 0-1.055-.04l-8.36 7.153a1.819 1.819 0 0 0 .793 3.172c.68.145 1.384-.11 1.813-.656l6.867-8.594a.777.777 0 0 0-.058-1.035Zm0 0"/>
    <path style="stroke:none;fill-rule:evenodd;fill:#000;fill-opacity:1" d="M0 20A15.991 15.991 0 0 1 9.617 5.344 15.998 15.998 0 0 1 31.094 25.32c-.883 2.508-3.692 3.207-5.864 2.5C22.617 26.977 18.95 26 16 26s-6.621.977-9.23 1.82c-2.172.707-4.98.008-5.864-2.5A15.913 15.913 0 0 1 0 20ZM16 6A14.002 14.002 0 0 0 2.793 24.656c.406 1.153 1.848 1.754 3.36 1.262C8.792 25.066 12.714 24 16 24c3.285 0 7.207 1.063 9.848 1.922 1.511.488 2.953-.113 3.359-1.266A14.002 14.002 0 0 0 16 6Zm0 0"/>
</svg>
